<svg width="111" height="20" viewBox="0 0 111 20" fill="none" xmlns="http://www.w3.org/2000/svg">
<path fill-rule="evenodd" clip-rule="evenodd" d="M76.1828 0H61.9026V2.98111H76.1828V0ZM0.000488281 0.000488281H14.2807V2.9816H0.000488281V0.000488281ZM0 11.0593V7.85986H3.36925H14.2802V11.0593H3.36925V19.9999H0V11.0593ZM61.9026 11.0593V7.85986H65.2718H76.1801V11.0593H65.2718V19.9999H61.9026V11.0593ZM24.7301 0H21.3608V17.0699V19.9998H24.7301H34.1613V17.0699H24.7301V0ZM83.1501 0H86.5194V19.9998H83.1501V0ZM107.002 0V15.3314L98.452 0H97.9317H94.5625V19.9998H97.9317V4.71156L106.517 19.9998H107.002H110.374V0H107.002ZM42.3663 0L47.4525 9.04306L52.5387 0H56.3743L49.1372 12.0403V19.9998H45.7652V12.0403L38.5281 0H42.3663Z" fill="#00FFD4"/>
</svg>
